<svg width="16" height="16" viewBox="0 0 16 16" fill="none" xmlns="http://www.w3.org/2000/svg">
<path fill-rule="evenodd" clip-rule="evenodd" d="M1.64598 4.646C1.69242 4.59944 1.7476 4.56249 1.80834 4.53729C1.86909 4.51208 1.93421 4.49911 1.99998 4.49911C2.06575 4.49911 2.13087 4.51208 2.19161 4.53729C2.25236 4.56249 2.30753 4.59944 2.35398 4.646L7.99998 10.293L13.646 4.646C13.6925 4.59951 13.7477 4.56264 13.8084 4.53748C13.8691 4.51232 13.9342 4.49937 14 4.49937C14.0657 4.49937 14.1308 4.51232 14.1916 4.53748C14.2523 4.56264 14.3075 4.59951 14.354 4.646C14.4005 4.69249 14.4373 4.74768 14.4625 4.80842C14.4877 4.86916 14.5006 4.93426 14.5006 5C14.5006 5.06574 14.4877 5.13085 14.4625 5.19158C14.4373 5.25232 14.4005 5.30751 14.354 5.354L8.35398 11.354C8.30753 11.4006 8.25236 11.4375 8.19161 11.4627C8.13087 11.4879 8.06574 11.5009 7.99998 11.5009C7.93421 11.5009 7.86909 11.4879 7.80834 11.4627C7.7476 11.4375 7.69242 11.4006 7.64598 11.354L1.64598 5.354C1.59942 5.30756 1.56247 5.25238 1.53727 5.19163C1.51206 5.13089 1.49908 5.06577 1.49908 5C1.49908 4.93423 1.51206 4.86911 1.53727 4.80837C1.56247 4.74762 1.59942 4.69245 1.64598 4.646Z" fill="black"/>
</svg>
