<svg width="136" height="32" viewBox="0 0 136 32" fill="none" xmlns="http://www.w3.org/2000/svg">
<path d="M126.509 25.5795C125.581 25.5795 124.758 25.4249 124.038 25.1155C123.325 24.7999 122.76 24.3264 122.344 23.6951C121.933 23.0574 121.728 22.2588 121.728 21.2992C121.728 20.4912 121.87 19.8093 122.154 19.2538C122.438 18.6982 122.83 18.2469 123.328 17.8996C123.827 17.5524 124.401 17.2904 125.051 17.1136C125.701 16.9306 126.396 16.8075 127.134 16.7443C127.961 16.6686 128.627 16.5897 129.132 16.5076C129.636 16.4192 130.003 16.2961 130.23 16.1383C130.463 15.9741 130.58 15.7437 130.58 15.447V15.3996C130.58 14.9135 130.413 14.5379 130.078 14.2727C129.744 14.0076 129.292 13.875 128.724 13.875C128.112 13.875 127.62 14.0076 127.248 14.2727C126.875 14.5379 126.639 14.9041 126.538 15.3712L122.268 15.2197C122.394 14.3359 122.719 13.5467 123.243 12.8523C123.773 12.1515 124.499 11.6023 125.42 11.2046C126.348 10.8005 127.462 10.5985 128.762 10.5985C129.69 10.5985 130.545 10.709 131.328 10.9299C132.111 11.1446 132.792 11.4603 133.373 11.8769C133.953 12.2873 134.402 12.7923 134.717 13.3921C135.039 13.9918 135.2 14.6768 135.2 15.447V25.3333H130.845V23.3068H130.731C130.473 23.7992 130.141 24.2159 129.737 24.5568C129.34 24.8977 128.87 25.1534 128.327 25.3239C127.79 25.4943 127.184 25.5795 126.509 25.5795ZM127.939 22.5492C128.437 22.5492 128.885 22.4482 129.283 22.2462C129.687 22.0442 130.009 21.7664 130.249 21.4129C130.489 21.053 130.608 20.6364 130.608 20.1629V18.7803C130.476 18.8498 130.315 18.9129 130.126 18.9697C129.943 19.0265 129.741 19.0802 129.52 19.1307C129.299 19.1812 129.072 19.2254 128.838 19.2633C128.605 19.3011 128.38 19.3359 128.166 19.3674C127.73 19.4369 127.358 19.5442 127.049 19.6894C126.746 19.8346 126.512 20.024 126.348 20.2576C126.19 20.4849 126.112 20.7563 126.112 21.072C126.112 21.5518 126.282 21.9179 126.623 22.1705C126.97 22.423 127.409 22.5492 127.939 22.5492Z" fill="#2B823F"/>
<path d="M111.954 25.5795C111.027 25.5795 110.203 25.4249 109.483 25.1155C108.77 24.7999 108.205 24.3264 107.789 23.6951C107.379 23.0574 107.173 22.2588 107.173 21.2992C107.173 20.4912 107.315 19.8093 107.599 19.2538C107.883 18.6982 108.275 18.2469 108.773 17.8996C109.272 17.5524 109.846 17.2904 110.496 17.1136C111.147 16.9306 111.841 16.8075 112.579 16.7443C113.406 16.6686 114.072 16.5897 114.577 16.5076C115.082 16.4192 115.448 16.2961 115.675 16.1383C115.909 15.9741 116.025 15.7437 116.025 15.447V15.3996C116.025 14.9135 115.858 14.5379 115.524 14.2727C115.189 14.0076 114.738 13.875 114.17 13.875C113.557 13.875 113.065 14.0076 112.693 14.2727C112.32 14.5379 112.084 14.9041 111.983 15.3712L107.713 15.2197C107.839 14.3359 108.164 13.5467 108.688 12.8523C109.218 12.1515 109.944 11.6023 110.866 11.2046C111.793 10.8005 112.907 10.5985 114.208 10.5985C115.135 10.5985 115.991 10.709 116.773 10.9299C117.556 11.1446 118.237 11.4603 118.818 11.8769C119.399 12.2873 119.847 12.7923 120.162 13.3921C120.484 13.9918 120.645 14.6768 120.645 15.447V25.3333H116.29V23.3068H116.177C115.918 23.7992 115.587 24.2159 115.183 24.5568C114.785 24.8977 114.315 25.1534 113.772 25.3239C113.236 25.4943 112.63 25.5795 111.954 25.5795ZM113.384 22.5492C113.883 22.5492 114.331 22.4482 114.728 22.2462C115.132 22.0442 115.454 21.7664 115.694 21.4129C115.934 21.053 116.054 20.6364 116.054 20.1629V18.7803C115.921 18.8498 115.76 18.9129 115.571 18.9697C115.388 19.0265 115.186 19.0802 114.965 19.1307C114.744 19.1812 114.517 19.2254 114.283 19.2633C114.05 19.3011 113.826 19.3359 113.611 19.3674C113.176 19.4369 112.803 19.5442 112.494 19.6894C112.191 19.8346 111.958 20.024 111.793 20.2576C111.636 20.4849 111.557 20.7563 111.557 21.072C111.557 21.5518 111.727 21.9179 112.068 22.1705C112.415 22.423 112.854 22.5492 113.384 22.5492Z" fill="#2B823F"/>
<path d="M97.1797 25.5417C96.1068 25.5417 95.1316 25.2639 94.2543 24.7084C93.3771 24.1528 92.6765 23.3195 92.1526 22.2084C91.6288 21.0972 91.3669 19.7178 91.3669 18.0701C91.3669 16.3593 91.6382 14.9514 92.181 13.8466C92.7238 12.7418 93.4339 11.9243 94.3111 11.394C95.1948 10.8637 96.1446 10.5985 97.1608 10.5985C97.9245 10.5985 98.5777 10.7311 99.1205 10.9963C99.6633 11.2551 100.111 11.5897 100.465 12C100.818 12.4104 101.087 12.8365 101.27 13.2785H101.364V5.93945H105.994V25.3333H101.412V22.9754H101.27C101.074 23.4236 100.796 23.8435 100.436 24.2349C100.077 24.6263 99.6254 24.9419 99.0826 25.1818C98.5461 25.4217 97.9118 25.5417 97.1797 25.5417ZM98.7891 21.9337C99.3509 21.9337 99.8305 21.7759 100.228 21.4603C100.626 21.1383 100.932 20.6869 101.146 20.1061C101.361 19.5253 101.468 18.8435 101.468 18.0606C101.468 17.2652 101.361 16.5802 101.146 16.0057C100.938 15.4312 100.632 14.9893 100.228 14.68C99.8305 14.3706 99.3509 14.2159 98.7891 14.2159C98.2148 14.2159 97.7288 14.3738 97.3312 14.6894C96.9336 15.0051 96.6306 15.4502 96.4223 16.0247C96.2204 16.5992 96.1194 17.2778 96.1194 18.0606C96.1194 18.8435 96.2235 19.5253 96.4318 20.1061C96.6401 20.6869 96.9399 21.1383 97.3312 21.4603C97.7288 21.7759 98.2148 21.9337 98.7891 21.9337Z" fill="#2B823F"/>
<path d="M76.3004 25.6079C74.7793 25.6079 73.4665 25.3081 72.362 24.7083C71.2638 24.1023 70.4181 23.2405 69.8248 22.1231C69.2379 20.9994 68.9444 19.6641 68.9444 18.1174C68.9444 16.6149 69.241 15.3018 69.8343 14.178C70.4276 13.048 71.2638 12.1705 72.3431 11.5455C73.4224 10.9142 74.6941 10.5985 76.1584 10.5985C77.1935 10.5985 78.1402 10.7595 78.9985 11.0815C79.8569 11.4034 80.5985 11.8801 81.2233 12.5114C81.8482 13.1427 82.3342 13.9224 82.6813 14.8504C83.0284 15.7721 83.202 16.8296 83.202 18.0227V19.178H70.5633V16.4886H78.8944C78.8881 15.9962 78.7713 15.5575 78.5441 15.1724C78.3169 14.7873 78.0045 14.4874 77.6069 14.2727C77.2156 14.0518 76.7643 13.9413 76.2531 13.9413C75.7355 13.9413 75.2716 14.0581 74.8614 14.2917C74.4511 14.519 74.1261 14.8315 73.8863 15.2292C73.6464 15.6206 73.5202 16.0657 73.5076 16.5644V19.3011C73.5076 19.8946 73.6243 20.4154 73.8579 20.8636C74.0914 21.3056 74.4227 21.6496 74.8519 21.8958C75.2811 22.142 75.7923 22.2652 76.3856 22.2652C76.7958 22.2652 77.1682 22.2083 77.5027 22.0947C77.8372 21.9811 78.1244 21.8138 78.3642 21.5928C78.6041 21.3718 78.784 21.1004 78.9039 20.7784L83.1546 20.9015C82.9779 21.8548 82.5898 22.685 81.9902 23.392C81.3969 24.0928 80.6174 24.6389 79.6518 25.0303C78.6861 25.4154 77.569 25.6079 76.3004 25.6079Z" fill="#2B823F"/>
<path d="M61.3035 25.6079C59.7824 25.6079 58.4696 25.3081 57.3651 24.7083C56.2669 24.1023 55.4212 23.2405 54.8279 22.1231C54.241 20.9994 53.9475 19.6641 53.9475 18.1174C53.9475 16.6149 54.2441 15.3018 54.8374 14.178C55.4307 13.048 56.2669 12.1705 57.3462 11.5455C58.4255 10.9142 59.6972 10.5985 61.1615 10.5985C62.1966 10.5985 63.1433 10.7595 64.0016 11.0815C64.86 11.4034 65.6016 11.8801 66.2264 12.5114C66.8513 13.1427 67.3372 13.9224 67.6844 14.8504C68.0315 15.7721 68.2051 16.8296 68.2051 18.0227V19.178H55.5664V16.4886H63.8975C63.8912 15.9962 63.7744 15.5575 63.5472 15.1724C63.32 14.7873 63.0076 14.4874 62.61 14.2727C62.2187 14.0518 61.7674 13.9413 61.2562 13.9413C60.7386 13.9413 60.2747 14.0581 59.8645 14.2917C59.4542 14.519 59.1292 14.8315 58.8894 15.2292C58.6495 15.6206 58.5233 16.0657 58.5107 16.5644V19.3011C58.5107 19.8946 58.6274 20.4154 58.861 20.8636C59.0945 21.3056 59.4258 21.6496 59.855 21.8958C60.2842 22.142 60.7954 22.2652 61.3887 22.2652C61.7989 22.2652 62.1713 22.2083 62.5058 22.0947C62.8403 21.9811 63.1275 21.8138 63.3673 21.5928C63.6072 21.3718 63.7871 21.1004 63.907 20.7784L68.1577 20.9015C67.981 21.8548 67.5929 22.685 66.9933 23.392C66.4 24.0928 65.6205 24.6389 64.6549 25.0303C63.6892 25.4154 62.5721 25.6079 61.3035 25.6079Z" fill="#2B823F"/>
<path d="M42.9904 30.7879C42.435 30.7879 41.9112 30.7437 41.4189 30.6553C40.9266 30.5733 40.5037 30.4628 40.1503 30.3239L41.1727 26.9622C41.6271 27.1137 42.0374 27.2021 42.4034 27.2273C42.7758 27.2526 43.0946 27.1926 43.3596 27.0474C43.631 26.9085 43.8393 26.6591 43.9845 26.2993L44.1643 25.8637L38.9953 10.788H43.8425L46.5217 21.1667H46.6732L49.3902 10.788H54.2658L48.7843 26.7254C48.5193 27.5209 48.1437 28.2216 47.6577 28.8277C47.1781 29.4401 46.5564 29.9199 45.7927 30.2671C45.0353 30.6143 44.1012 30.7879 42.9904 30.7879Z" fill="#2B823F"/>
<path d="M90.2342 16.2221C91.0382 17.6956 90.8341 20.5971 89.3448 21.3324C87.7282 22.1084 84.9015 21.3324 83.7441 19.5578C85.3459 19.5546 86.3495 19.2617 87.5682 18.8888C88.9005 18.2213 89.7743 17.3222 90.2342 16.2221Z" fill="#29813F"/>
<path d="M29.0647 15.1691C29.0647 14.9226 29.087 14.7433 28.9304 14.5416C28.662 14.183 28.3488 13.8468 28.0356 13.533C27.5435 13.0848 26.8947 12.7262 26.3131 12.4349C25.0156 11.7849 23.6287 11.3367 22.2194 11.0229C19.2665 10.373 16.1794 10.2609 13.1594 10.3954C11.9291 10.4626 10.6987 10.5299 9.4907 10.754C9.02092 10.8436 8.55115 10.9333 8.10374 11.0902C7.6116 11.2471 7.09708 11.4263 6.69442 11.7401C6.56019 11.8298 6.44834 11.9418 6.33649 12.0539C6.24701 12.1659 6.15753 12.3004 6.09042 12.4349C6.02331 12.5469 5.93383 12.659 5.88909 12.7935C5.84435 12.9055 5.82198 12.9952 5.82198 13.0848C5.82198 13.1969 5.86672 13.2865 5.86672 13.3762C5.86672 13.3986 6.56019 13.4658 6.6273 13.4882C6.89575 13.533 7.16419 13.5555 7.43263 13.5779C8.41692 13.6899 9.42358 13.7796 10.4079 13.8692C12.4659 14.0485 14.5464 14.2502 16.6268 14.4295C18.6178 14.6088 20.5863 14.7657 22.5773 14.9674C24.5906 15.1691 26.5816 15.438 28.6173 15.3932C28.7291 15.3932 28.8633 15.3932 28.9752 15.3932C29.1318 15.3932 29.0647 15.326 29.0647 15.1691ZM11.1184 12.2224C10.7829 12.4241 10.6737 12.4446 10.3408 12.7486C9.78151 13.3313 8.79722 13.0176 8.059 12.9503C7.94715 12.9503 7.8353 12.9279 7.70108 12.9055C7.56685 12.8831 7.34315 12.9279 7.36552 12.7935C7.36552 12.6142 7.41026 12.4797 7.47737 12.3004C7.56686 12.0987 7.92478 12.0091 8.12611 11.9194C8.39455 11.8073 8.663 11.7177 8.95381 11.6505C10.0052 11.3591 11.1237 11.1798 12.2199 11.2022C12.2646 11.2022 12.3093 11.2022 12.3541 11.2022C11.9291 11.4936 11.5632 11.955 11.1184 12.2224Z" fill="#29813F"/>
<path d="M6.04685 4.52717C4.90597 4.45993 3.8993 3.36176 4.01116 2.21876C4.14538 0.986116 5.39811 0.112059 6.56136 0C6.11396 0.717175 5.37574 1.32229 5.15204 2.17394C4.90597 3.048 5.57707 3.85482 6.04685 4.52717Z" fill="#29813F"/>
<path d="M7.25346 9.20716C7.85746 7.72799 8.88649 6.47293 9.51286 4.99376C9.84841 4.20935 9.96026 3.42494 9.19967 2.88705C8.61805 2.46123 7.92457 2.23711 7.27583 1.99058C8.08116 1.65441 9.13256 1.632 9.93789 1.99058C10.8998 2.41641 11.4367 3.40252 11.3025 4.43346C11.1683 5.57646 10.4748 6.6074 9.69182 7.43664C8.97597 8.15381 8.14827 8.78134 7.25346 9.20716Z" fill="#29813F"/>
<path d="M3.69708 14.945C1.57191 14.8329 -0.665116 12.8383 0.184954 10.5747C0.900801 8.66968 3.22731 7.52668 5.10641 7.28015C4.05501 8.5128 2.51146 9.43168 1.75087 10.9109C0.945542 12.5245 2.66805 13.9364 3.69708 14.945Z" fill="#29813F"/>
<path d="M20.4077 10.0368L16.1573 9.61095C15.8889 9.58854 15.6876 9.34201 15.7323 9.07307L15.8889 7.45942C15.9113 7.19048 16.1573 6.98877 16.4258 7.0336L20.6761 7.45942C20.9446 7.48183 21.1459 7.72836 21.1012 7.9973L20.9446 9.61095C20.9222 9.87989 20.6761 10.0592 20.4077 10.0368Z" fill="#2B823F"/>
<path d="M32.0181 19.2029L31.9733 18.7323C31.9062 18.1495 31.3917 17.7237 30.8101 17.791L28.1928 18.0599C28.1704 17.6565 27.8572 17.3203 27.4545 17.3203H6.56073C6.15807 17.3203 5.82251 17.6565 5.82251 18.0823V18.4857L3.36179 18.2392C2.78016 18.172 2.26565 18.5978 2.19853 19.1805L2.15379 19.6511C2.08668 20.2338 2.51172 20.7493 3.09334 20.8165L5.82251 21.1079V21.5561V22.1388V28.4365C5.82251 30.4088 6.9634 32 8.37272 32H25.6426C27.0519 32 28.1928 30.4088 28.1928 28.4365V22.1388V21.5561V20.6597L31.0562 20.3683C31.6378 20.3235 32.0628 19.7856 32.0181 19.2029ZM12.3994 30.2967H9.37938C9.35701 30.2967 9.33464 30.2967 9.31227 30.2967H9.26753C8.35035 30.2967 7.61213 29.3778 7.61213 28.2348V22.0492C7.61213 21.982 7.61213 21.9371 7.61213 21.8699V20.5476C7.61213 20.2338 7.88058 19.9649 8.19376 19.9649H9.26753H9.31227H9.37938H11.5269H12.3994V30.2967Z" fill="#2B823F"/>
</svg>
